<?xml version="1.0" encoding="UTF-8"?>
<svg version="1.1" xmlns="http://www.w3.org/2000/svg" width="1248" height="1248">
<path d="M0 0 C5.7065278 7.40306309 6.51037037 17.46160024 8.125 26.4375 C8.38734636 27.87311069 8.65005039 29.30865605 8.91308594 30.74414062 C9.45691124 33.72043344 9.99603527 36.69752789 10.53173828 39.67529297 C11.23637624 43.58928676 11.95898716 47.49980653 12.68359375 51.41015625 C25.80303518 123.0621289 35.70306988 195.3717842 41.3125 268 C41.40444641 269.18376221 41.49639282 270.36752441 41.59112549 271.5871582 C48.97551821 368.21905927 47.33254247 468.33215847 -80.24560547 809.11254883 C-81.45523791 810.69596711 -82.58220866 812.34206298 -83.6875 814 C-84.3475 814 -85.0075 814 -85.6875 814 C-85.955625 814.804375 -86.22375 815.60875 -86.5 816.4375 C-87.0878125 817.7059375 -87.0878125 817.7059375 -87.6875 819 C-88.6775 819.33 -89.6675 819.66 -90.6875 820 C-91.39688944 821.31110215 -92.05951828 822.64801583 -92.6875 824 C-94.05688477 825.67236328 -94.05688477 825.67236328 -95.62890625 827.3203125 C-96.20817871 827.93326172 -96.78745117 828.54621094 -97.38427734 829.17773438 C-97.99996582 829.82033203 -98.6156543 830.46292969 -99.25 831.125 C-100.52556138 832.4705756 -101.8003008 833.81693088 -103.07421875 835.1640625 C-103.69474121 835.81922852 -104.31526367 836.47439453 -104.95458984 837.14941406 C-107.20785182 839.55568706 -109.38695763 842.02346316 -111.5625 844.5 C-114.74271886 848.06231539 -118.07641105 851.2160101 -121.7265625 854.2890625 C-123.80359272 856.10129205 -125.70676282 858.02110709 -127.625 860 C-131.0171153 863.45221183 -134.61808018 866.39309655 -138.51171875 869.26171875 C-140.80069443 871.02299374 -140.80069443 871.02299374 -143.07421875 873.3984375 C-145.82986467 876.14172626 -148.74620709 878.55891937 -151.8125 880.9375 C-152.40651611 881.4005957 -153.00053223 881.86369141 -153.61254883 882.34082031 C-165.28922764 891.38678493 -177.06716331 900.30641427 -189.6875 908 C-190.84899722 908.73616978 -192.00904927 909.4746226 -193.16796875 910.21484375 C-208.06254299 919.69719525 -223.32425656 928.58954799 -239.2109375 936.30859375 C-243.09989721 938.20063819 -246.93777895 940.18259002 -250.76953125 942.1875 C-252.6875 943 -252.6875 943 -255.6875 943 C-256.0175 943.66 -256.3475 944.32 -256.6875 945 C-258.76611328 946.04980469 -258.76611328 946.04980469 -261.5078125 947.171875 C-262.51038086 947.58590576 -263.51294922 947.99993652 -264.54589844 948.42651367 C-265.62387695 948.86326416 -266.70185547 949.30001465 -267.8125 949.75 C-268.91110352 950.20028564 -270.00970703 950.65057129 -271.14160156 951.11450195 C-273.33497187 952.01195113 -275.52961483 952.90629693 -277.72558594 953.79736328 C-280.12542621 954.77177914 -282.52104163 955.75511147 -284.9140625 956.74609375 C-294.27909934 960.57724519 -303.79390954 963.92958628 -313.36572266 967.20361328 C-315.38612483 967.8966261 -317.40242648 968.60157107 -319.41796875 969.30859375 C-379.83217371 990.12930845 -444.95011123 1000.9774067 -508.63134766 1004.78955078 C-511.50716445 1004.98758194 -514.36410451 1005.25490356 -517.23046875 1005.55859375 C-530.95771196 1006.97418194 -544.6577046 1007.26554271 -558.44937134 1007.35247803 C-560.62225698 1007.3673048 -562.79511001 1007.38849961 -564.96786499 1007.41656494 C-582.1311932 1007.61780194 -599.83014113 1007.49021328 -613.44921875 995.44140625 C-614.6875 994 -614.6875 994 -614.6875 992 C-615.3475 992 -616.0075 992 -616.6875 992 C-625.73279712 975.3940442 -631.11206109 957.5515039 -636.04394531 939.36474609 C-636.60642976 937.29789314 -637.18831467 935.23633971 -637.7734375 933.17578125 C-643.20418795 913.08200457 -646.09423144 892.0864147 -647.52441406 871.34472656 C-647.67255902 869.21481014 -647.84429203 867.08842243 -648.0234375 864.9609375 C-650.54198335 830.99460293 -648.49595682 796.50878711 -642.6875 763 C-642.50316406 761.91912109 -642.31882812 760.83824219 -642.12890625 759.72460938 C-635.00913382 718.60178585 -622.34017958 676.48895084 -602.93359375 639.40234375 C-601.44344601 636.52948839 -599.98821633 633.63982211 -598.53125 630.75 C-591.24026515 616.37429179 -583.46311512 602.51942843 -574.6875 589 C-574.25518066 588.32614258 -573.82286133 587.65228516 -573.37744141 586.95800781 C-561.3006438 568.16124955 -547.84989024 549.67604899 -532.72265625 533.21484375 C-530.90282831 531.23434003 -529.13183669 529.22373723 -527.375 527.1875 C-519.52387014 518.20967041 -511.35478761 509.57267161 -502.9375 501.125 C-502.24092285 500.42383057 -501.5443457 499.72266113 -500.82666016 499.00024414 C-496.83985183 495.02524228 -492.75026327 491.22973353 -488.48632812 487.55371094 C-485.45566037 484.93601691 -482.52004056 482.21210605 -479.5703125 479.50390625 C-477.6875 478 -477.6875 478 -475.6875 478 C-475.3575 477.01 -475.0275 476.02 -474.6875 475 C-473.02083333 474.33333333 -471.35416667 473.66666667 -469.6875 473 C-469.3575 472.01 -469.0275 471.02 -468.6875 470 C-467.12768555 468.61645508 -467.12768555 468.61645508 -465.13671875 467.20703125 C-464.41274902 466.68447754 -463.6887793 466.16192383 -462.94287109 465.62353516 C-461.8264624 464.81988525 -461.8264624 464.81988525 -460.6875 464 C-459.33531569 462.9681465 -457.98757822 461.93043753 -456.64453125 460.88671875 C-448.15402622 454.3266117 -439.59453877 447.98810558 -430.6875 442 C-430.09227539 441.5968457 -429.49705078 441.19369141 -428.88378906 440.77832031 C-402.00658951 422.57569844 -373.68158576 405.93025216 -343.89648438 392.97753906 C-340.7290317 391.57585024 -337.62016335 390.06661462 -334.5 388.5625 C-299.17198074 371.86410989 -261.23851359 360.46503657 -223.6875 350 C-228.20875739 350.54663833 -232.7293909 351.0980943 -237.24951172 351.65405273 C-238.78776058 351.84255885 -240.3261724 352.02973996 -241.86474609 352.21557617 C-244.07433398 352.4826927 -246.28329481 352.75454564 -248.4921875 353.02734375 C-249.18182587 353.10967758 -249.87146423 353.19201141 -250.58200073 353.27684021 C-254.25232266 353.71405609 -254.25232266 353.71405609 -257.6875 355 C-259.93367524 355.28230618 -262.1849785 355.52384322 -264.4375 355.75 C-272.9257912 356.67319498 -281.33049351 358.02691303 -289.75 359.4375 C-290.97879883 359.6427832 -292.20759766 359.84806641 -293.47363281 360.05957031 C-326.19107778 365.59770206 -358.67317564 372.25701642 -390.6875 381 C-392.45957082 381.47159698 -394.23170018 381.94297406 -396.00390625 382.4140625 C-419.89167297 388.89077544 -443.62276865 397.03615941 -466.6875 406 C-467.50025391 406.31388672 -468.31300781 406.62777344 -469.15039062 406.95117188 C-479.51890176 410.97161497 -489.70856594 415.2344242 -499.72558594 420.06396484 C-501.85276628 421.07884904 -503.99140625 422.06628463 -506.1328125 423.05078125 C-521.45894552 430.1336988 -536.34353589 438.08529333 -550.6875 447 C-551.8357249 447.69696496 -552.98418328 448.39354534 -554.1328125 449.08984375 C-569.35912578 458.38847379 -584.06604499 468.46552244 -597.6875 480 C-599.37146158 481.33779947 -601.05896955 482.6711471 -602.75 484 C-607.04471492 487.42627336 -611.1423109 491.02688413 -615.19921875 494.73046875 C-616.81513363 496.20432518 -618.44221234 497.6660675 -620.08203125 499.11328125 C-629.23528858 507.20186244 -638.13197991 515.73833165 -646.03125 525.0703125 C-647.22991649 526.46687204 -648.46402355 527.8332695 -649.71875 529.1796875 C-655.00567883 534.85755121 -659.61819768 540.82437085 -664.05761719 547.17407227 C-665.22200122 548.81600596 -666.44950707 550.41282958 -667.6875 552 C-668.3475 552 -669.0075 552 -669.6875 552 C-669.94136475 552.71881348 -670.19522949 553.43762695 -670.45678711 554.17822266 C-671.77986857 557.21178256 -673.38266321 559.51274034 -675.37890625 562.1484375 C-693.18098537 586.15979844 -708.07801026 613.88435525 -718.83691406 641.79541016 C-719.74402197 644.14649638 -720.68000245 646.48497143 -721.6171875 648.82421875 C-748.12747104 715.82140591 -757.37065859 787.36857262 -758.6875 859 C-758.70409668 859.78987305 -758.72069336 860.57974609 -758.73779297 861.39355469 C-759.08545314 879.84100432 -758.39169872 898.53417712 -757.125 916.9375 C-756.38985065 927.9417669 -756.60112369 938.97705449 -756.6875 950 C-762.296875 951.125 -762.296875 951.125 -765.8125 950 C-771.31586151 946.1715746 -773.12872879 940.25779536 -774.8125 934 C-777.09262176 925.85079517 -779.63894497 917.79857746 -782.25 909.75 C-782.67833453 908.42636078 -783.10663809 907.10271154 -783.53491211 905.77905273 C-785.67192653 899.18117694 -787.82137982 892.58740968 -789.97825623 885.9960022 C-798.12784853 861.08669809 -806.0094133 836.24845941 -811.83984375 810.671875 C-812.49040273 807.8537854 -813.16245198 805.044043 -813.84765625 802.234375 C-817.26571185 788.00408591 -819.50418695 773.74876784 -821.4375 759.25 C-821.74264406 757.0259255 -822.0486308 754.80196644 -822.35546875 752.578125 C-825.66260836 728.41506889 -825.66260836 728.41506889 -826.00390625 717.90234375 C-826.04604248 716.6198877 -826.08817871 715.33743164 -826.1315918 714.01611328 C-826.17170854 712.65659447 -826.21116186 711.29705594 -826.25 709.9375 C-826.27051422 709.23381287 -826.29102844 708.53012573 -826.31216431 707.80511475 C-826.98405544 684.38236238 -826.56205639 661.22878268 -824.94775391 637.85644531 C-824.72730555 634.58983906 -824.53505379 631.32370538 -824.35546875 628.0546875 C-821.93343506 589.15718001 -811.15561493 550.85388367 -798.45161438 514.22720337 C-797.39843289 511.17548214 -796.39200495 508.15283403 -795.6875 505 C-795.0275 505 -794.3675 505 -793.6875 505 C-793.50876343 503.67814697 -793.50876343 503.67814697 -793.32641602 502.32958984 C-792.71275783 499.13162642 -791.82975483 496.6683358 -790.46484375 493.7265625 C-790.01278564 492.74478027 -789.56072754 491.76299805 -789.0949707 490.75146484 C-788.36733521 489.20386475 -788.36733521 489.20386475 -787.625 487.625 C-787.12766357 486.55588379 -786.63032715 485.48676758 -786.11791992 484.38525391 C-774.75893221 460.07983662 -762.02961003 436.37291645 -745.6875 415 C-745.29852539 414.48775879 -744.90955078 413.97551758 -744.50878906 413.44775391 C-731.83959986 396.76813831 -718.72549662 380.66755614 -703.85083008 365.90258789 C-702.11495269 364.17751523 -700.3901491 362.44188009 -698.66601562 360.70507812 C-691.97977469 354.01075836 -685.11210233 347.87525193 -677.6875 342 C-676.47253539 340.98420492 -675.26207079 339.96297302 -674.05859375 338.93359375 C-673.09050781 338.10988281 -672.12242187 337.28617188 -671.125 336.4375 C-670.13371094 335.59058594 -669.14242187 334.74367188 -668.12109375 333.87109375 C-665.6875 332 -665.6875 332 -663.6875 332 C-663.6875 331.34 -663.6875 330.68 -663.6875 330 C-661.61599007 328.37303308 -659.54358155 326.86293187 -657.375 325.375 C-656.19088356 324.55022908 -655.00730788 323.72468137 -653.82421875 322.8984375 C-653.17710937 322.44887695 -652.53 321.99931641 -651.86328125 321.53613281 C-649.35739591 319.76694177 -646.88921165 317.95005862 -644.41796875 316.1328125 C-638.83596078 312.06296805 -633.11215835 308.25102038 -627.3125 304.5 C-625.79825439 303.51737183 -625.79825439 303.51737183 -624.25341797 302.51489258 C-591.42518937 281.26766015 -557.12163869 261.99883348 -521.70214844 245.42285156 C-518.39758487 243.86316607 -515.10802083 242.27458748 -511.8203125 240.6796875 C-510.64412354 240.10943848 -509.46793457 239.53918945 -508.25610352 238.95166016 C-506.0109289 237.86198206 -503.76654925 236.77066356 -501.52319336 235.67724609 C-493.7206486 231.90164706 -485.82528407 228.39047737 -477.87228394 224.94830322 C-474.81313748 223.62048384 -471.76011225 222.27886312 -468.70687866 220.93751526 C-436.0401109 206.58843555 -436.0401109 206.58843555 -421.92578125 201.07421875 C-417.54741931 199.35785825 -413.19972355 197.57006856 -408.85546875 195.76953125 C-408.14774826 195.47622421 -407.44002777 195.18291718 -406.71086121 194.88072205 C-405.24148079 194.27160189 -403.77211561 193.66244498 -402.30276489 193.05325317 C-390.37185638 188.10968435 -378.41083776 183.28621134 -366.33813477 178.69677734 C-352.39215119 173.38786309 -338.5662675 167.77758905 -324.72219849 162.20956421 C-322.72920975 161.40837046 -320.73574526 160.60837042 -318.7421875 159.80859375 C-317.56253418 159.33478271 -316.38288086 158.86097168 -315.16748047 158.37280273 C-311.62582127 156.97566862 -308.06976995 155.63591568 -304.5 154.3125 C-264.50264494 139.40637702 -225.0572342 122.95931752 -185.90997314 105.96411133 C-183.83648445 105.06462962 -181.7619999 104.16750052 -179.68701172 103.27148438 C-168.49909773 98.43558345 -157.40935372 93.5154687 -146.5625 87.953125 C-142.9933792 86.13161718 -139.37177458 84.43770199 -135.73706055 82.75170898 C-125.43626171 77.96486107 -115.52949452 72.66419911 -105.6875 67 C-104.72021973 66.44586426 -103.75293945 65.89172852 -102.75634766 65.32080078 C-85.88877301 55.69073495 -85.88877301 55.69073495 -69.6875 45 C-69.01025879 44.52208008 -68.33301758 44.04416016 -67.63525391 43.55175781 C-50.9327684 31.74191957 -35.26923704 19.14669982 -21.125 4.3125 C-14.74813616 -1.73734519 -7.93300523 -5.9036318 0 0 Z " fill="#A3D922" transform="translate(1145.6875,208)"/>
<path d="M0 0 C37.95452273 -2.96472197 37.95452273 -2.96472197 54.73828125 11.17578125 C55.48158691 11.84432129 56.22489258 12.51286133 56.99072266 13.20166016 C59.45958943 15.41134092 62.0907595 17.3019811 64.8125 19.1875 C65.61171875 19.77789063 66.4109375 20.36828125 67.234375 20.9765625 C70.97919711 23.71641822 74.77005435 26.38910987 78.5625 29.0625 C79.30685303 29.58755127 80.05120605 30.11260254 80.81811523 30.65356445 C84.4931292 33.24304842 88.17774139 35.81735175 91.875 38.375 C104.90302357 47.4813226 117.56098478 57.13463549 130.25976562 66.69189453 C132.73165766 68.54997499 135.21025532 70.39906436 137.6875 72.25 C144.45251142 77.31907365 151.16575104 82.45626247 157.87963867 87.59277344 C158.75595947 88.26211914 159.63228027 88.93146484 160.53515625 89.62109375 C161.322854 90.2236499 162.11055176 90.82620605 162.92211914 91.44702148 C164.57684968 92.68374349 166.28113342 93.85408894 168 95 C168 95.66 168 96.32 168 97 C168.69996094 97.22558594 169.39992188 97.45117188 170.12109375 97.68359375 C173.61831572 99.28273053 176.22007306 101.53249405 179.0625 104.0625 C184.45298477 108.7638758 190.01607287 113.06195123 195.83203125 117.22265625 C196.54746094 117.80917969 197.26289063 118.39570312 198 119 C198 119.66 198 120.32 198 121 C198.71929687 121.23589844 199.43859375 121.47179687 200.1796875 121.71484375 C203.47509326 123.21648986 205.50689475 125.06553097 208.125 127.5625 C211.84646533 131.03919781 215.59371692 134.36495561 219.5625 137.5625 C224.00348074 141.14678091 228.24249742 144.89617412 232.45703125 148.7421875 C235.13777224 151.12232313 237.89504134 153.37731841 240.6875 155.625 C244.47047411 158.68538355 247.96241355 161.84295315 251.34375 165.3359375 C253.68935155 167.6926032 256.20315883 169.83179003 258.71875 172.00390625 C263.02163993 175.76893494 267.2070455 179.6640052 271.41015625 183.53955078 C272.95508255 184.9587383 274.50760666 186.36909157 276.0625 187.77734375 C283.28952218 194.34943125 290.23987912 201.15937285 297.08862305 208.12548828 C299.99815982 211.07116623 302.85577799 213.882234 306.06640625 216.50390625 C309.09085559 219.07730589 311.51936774 221.82090221 314.08984375 224.83203125 C317.53460384 228.74172828 321.2860047 232.34832006 325 236 C329.98235972 240.89876308 334.82747404 245.82833961 339.3828125 251.12890625 C341.85136184 253.98502977 344.4265424 256.73867702 347 259.5 C350.73654274 263.53157836 354.45014958 267.57334842 358.04296875 271.734375 C359.66115891 273.60772888 361.29059452 275.46965354 362.92578125 277.328125 C369.37029508 284.67635447 375.58875046 292.14283075 381.5625 299.87890625 C383.27288553 302.06896721 385.00170035 304.17597688 386.8125 306.27734375 C389 309 389 309 389 311 C389.66 311 390.32 311 391 311 C392.62890625 312.984375 392.62890625 312.984375 394.5625 315.75 C397.40157643 319.75630893 400.27787574 323.71630471 403.25 327.625 C408.05474068 334.01189099 412.68138911 340.51784413 417.24609375 347.078125 C418.82113412 349.34087413 420.41856183 351.54561132 422.09765625 353.734375 C425.5825883 358.38095106 426.6587221 361.81034591 426.6015625 367.640625 C425.73934892 371.02229386 424.51416494 372.5519973 422 375 C419.11032454 376.63562207 416.0831731 377.83986737 413 379.0625 C411.11036793 379.8416986 409.22106247 380.62168962 407.33203125 381.40234375 C405.80763428 382.02471924 405.80763428 382.02471924 404.25244141 382.65966797 C398.37011103 385.083778 392.5318903 387.61112769 386.6875 390.125 C384.30080364 391.14848971 381.91408547 392.17192856 379.52734375 393.1953125 C365.01550632 399.31655606 365.01550632 399.31655606 350.8203125 406.12109375 C348.75123133 407.12011363 346.64691413 407.93162184 344.5 408.75 C339.40939124 410.73996524 334.58426773 413.17903556 329.72192383 415.65966797 C323.95387618 418.57783206 318.08906541 421.23936438 312.1875 423.875 C302.83451826 428.07944132 293.75797763 432.65040511 284.73974609 437.52636719 C281.62264504 439.20296868 278.49350162 440.85583815 275.36328125 442.5078125 C260.66633199 450.27894507 246.21187693 458.36581639 232 467 C230.72431152 467.76812012 230.72431152 467.76812012 229.42285156 468.55175781 C208.88423841 480.93108902 188.95793532 494.30681327 170 509 C168.81516761 509.90763491 167.63027199 510.81518728 166.4453125 511.72265625 C159.56769788 517.02573936 152.93935156 522.56804548 146.40966797 528.29345703 C142.68968177 531.55319854 138.92012517 534.71680908 135.0625 537.8125 C131.17075769 540.96158735 127.58991176 544.25184944 124.14453125 547.8828125 C122.28105917 549.72252446 120.37557116 551.41618769 118.390625 553.12109375 C113.34685115 557.50141242 108.64870402 562.20499438 103.9375 566.9375 C103.07833984 567.79279297 102.21917969 568.64808594 101.33398438 569.52929688 C96.8833968 573.98668443 92.5768452 578.50753192 88.47290039 583.28637695 C86.615939 585.44682979 84.68280407 587.53239717 82.75 589.625 C77.62231487 595.3030159 72.96451285 601.31312441 68.28271484 607.35742188 C66.4690775 609.67987183 64.6086654 611.963518 62.75 614.25 C59.56118145 618.22465774 56.59711287 622.31305187 53.7109375 626.51171875 C52.58485742 628.14941969 51.44451774 629.77742151 50.2890625 631.39453125 C40.64375421 644.90232725 32.79124493 659.37423322 25 674 C24.61811523 674.71027344 24.23623047 675.42054688 23.84277344 676.15234375 C18.54433444 686.06137172 14.37903637 696.29003193 10.49951172 706.8371582 C10.1026416 707.87960693 9.70577148 708.92205566 9.296875 709.99609375 C8.94979492 710.93638428 8.60271484 711.8766748 8.24511719 712.84545898 C7 715 7 715 4.85644531 715.81274414 C4.24381836 715.87453857 3.63119141 715.93633301 3 716 C0.89119311 711.78238622 1.59201847 706.32634973 1.44238281 701.67871094 C1.37547978 699.63962279 1.29761485 697.60115633 1.21875 695.5625 C1.17492187 694.27601563 1.13109375 692.98953125 1.0859375 691.6640625 C1.0247876 689.89216553 1.0247876 689.89216553 0.96240234 688.08447266 C0.99469785 685.43498264 1.31917926 683.51850998 2 681 C2.04033462 679.48490956 2.03442835 677.96816349 1.9921875 676.453125 C1.94081494 670.81858269 2.45992193 665.34085437 3.125 659.75 C3.25334229 658.66098389 3.38168457 657.57196777 3.51391602 656.44995117 C4.68848447 646.87751473 6.07953106 637.33918842 7.55194092 627.80847168 C7.80517758 626.16910807 8.05610525 624.5293858 8.30450439 622.88928223 C9.9089178 612.35604178 12.06817352 602.25484072 15 592 C15.67104848 589.53043026 16.34029915 587.06037136 17.0078125 584.58984375 C24.4693854 557.47013305 33.10169315 530.96234552 44 505 C44.49322754 503.82034668 44.98645508 502.64069336 45.49462891 501.42529297 C55.59619667 477.30982255 55.59619667 477.30982255 61.37109375 466.19140625 C62.93458189 463.12816929 64.38550931 460.03415559 65.81982422 456.90942383 C70.07534293 447.65215305 74.88519736 438.78427109 79.91162109 429.92578125 C81.27924303 427.50590646 82.6126525 425.06852277 83.9375 422.625 C88.58894572 414.06364338 93.30138382 405.53552673 98 397 C97.67 397 97.34 397 97 397 C96.03191051 398.14087436 95.10645778 399.31797683 94.19921875 400.5078125 C93.35133789 401.61769531 93.35133789 401.61769531 92.48632812 402.75 C91.89271484 403.53375 91.29910156 404.3175 90.6875 405.125 C90.10548828 405.88554687 89.52347656 406.64609375 88.92382812 407.4296875 C86.40234738 410.74216504 83.93689226 414.0377718 81.70703125 417.5546875 C81.14371094 418.36164063 80.58039063 419.16859375 80 420 C79.34 420 78.68 420 78 420 C77.76023437 420.70640625 77.52046875 421.4128125 77.2734375 422.140625 C75.79072165 425.46991336 73.90315039 427.90415518 71.625 430.75 C65.89840239 438.01302772 60.59475521 445.54951361 55.30419922 453.13330078 C54.21997879 454.68514455 53.12848467 456.23190337 52.03515625 457.77734375 C46.86982507 465.08172973 41.92236752 472.53077723 37 480 C36.48066895 480.78793945 35.96133789 481.57587891 35.42626953 482.38769531 C28.36793241 493.11905582 21.52155067 503.93474599 15 515 C14.02242878 516.62596029 13.04340878 518.25105101 12.0625 519.875 C11.59199219 520.66261719 11.12148438 521.45023438 10.63671875 522.26171875 C9.75016389 523.74495253 8.86229753 525.22742067 7.96728516 526.70556641 C0.41728595 539.18498444 -6.37200926 552.01067563 -13 565 C-13.56050049 566.09610596 -13.56050049 566.09610596 -14.13232422 567.21435547 C-16.10282534 571.07895245 -18.03661711 574.96000492 -19.94433594 578.85595703 C-20.68874154 580.36783723 -21.44005004 581.87632822 -22.19628906 583.38232422 C-40.25281692 619.36453553 -53.68762493 657.86794413 -63 697 C-63.22880859 697.92232422 -63.45761719 698.84464844 -63.69335938 699.79492188 C-68.34669495 718.58566406 -70.75018792 737.79554244 -73 757 C-73.11633789 757.9681665 -73.23267578 758.93633301 -73.35253906 759.93383789 C-74.47126118 770.91956884 -74.24312747 782.03259685 -74.25 793.0625 C-74.25100708 794.18115448 -74.25201416 795.29980896 -74.25305176 796.45236206 C-74.24348496 812.1578044 -73.88286143 827.54755531 -71.453125 843.09472656 C-70.98150867 846.11855972 -70.56656429 849.14697102 -70.15625 852.1796875 C-63.99672632 895.80681105 -49.2890382 939.15189575 -28.93408203 978.17871094 C-27.97651379 980.04579382 -27.05994557 981.92847758 -26.15234375 983.8203125 C-19.51771169 997.58459581 -11.56950889 1010.57111305 -3.25 1023.375 C-1.83032029 1025.58139753 -0.41355149 1027.78967135 1 1030 C1.68835938 1031.06605469 2.37671875 1032.13210938 3.0859375 1033.23046875 C9.2190173 1043.2525321 12.57833565 1053.80841669 16 1065 C16.70626787 1067.2827884 17.41333402 1069.56532994 18.12109375 1071.84765625 C19.2550369 1075.50662522 20.38760959 1079.16597102 21.5144043 1082.82714844 C24.14912681 1091.36076232 26.90684955 1099.84619005 29.75 1108.3125 C35.49083222 1125.44369608 35.49083222 1125.44369608 37.0625 1130.3125 C37.44535156 1131.48425781 37.82820313 1132.65601563 38.22265625 1133.86328125 C39.1859639 1137.75039704 39.83693814 1141.32612373 38 1145 C29.40381964 1146.35729164 24.31371023 1142.66666726 17.35546875 1138.1640625 C14.92255526 1136.59498907 12.62074455 1135.20144964 10 1134 C10 1133.34 10 1132.68 10 1132 C8.02 1131.34 6.04 1130.68 4 1130 C4 1129.34 4 1128.68 4 1128 C3.32453125 1127.76796875 2.6490625 1127.5359375 1.953125 1127.296875 C-1.7545871 1125.66862048 -4.91616997 1123.53093081 -8.25 1121.25 C-8.91314209 1120.80188965 -9.57628418 1120.3537793 -10.25952148 1119.89208984 C-11.57703299 1119.00175345 -12.89339184 1118.10970858 -14.20849609 1117.21582031 C-16.48392836 1115.67157765 -18.77200714 1114.14679253 -21.0625 1112.625 C-21.743125 1112.16867187 -22.42375 1111.71234375 -23.125 1111.2421875 C-24.36549243 1110.42036126 -25.61552113 1109.61273462 -26.875 1108.8203125 C-28.28159171 1107.92816868 -29.64694543 1106.97142379 -31 1106 C-31 1105.34 -31 1104.68 -31 1104 C-31.66 1104 -32.32 1104 -33 1104 C-33 1103.34 -33 1102.68 -33 1102 C-34.06347656 1101.64615234 -34.06347656 1101.64615234 -35.1484375 1101.28515625 C-38.50869985 1099.77073664 -40.83297477 1097.84195299 -43.625 1095.4375 C-44.68700281 1094.53066741 -45.74951382 1093.62442968 -46.8125 1092.71875 C-47.61107422 1092.03425781 -47.61107422 1092.03425781 -48.42578125 1091.3359375 C-50.79180708 1089.32804461 -53.20997658 1087.3859848 -55.625 1085.4375 C-60.08835259 1081.79617494 -64.3909456 1078.01186067 -68.6484375 1074.1328125 C-70.84473207 1072.14082441 -73.07024685 1070.18992688 -75.3125 1068.25 C-78.33906681 1065.61610154 -81.16249691 1062.83750309 -84 1060 C-86.12858712 1058.16693904 -88.26809845 1056.34951497 -90.42578125 1054.55078125 C-90.94527344 1054.03902344 -91.46476563 1053.52726562 -92 1053 C-92 1052.34 -92 1051.68 -92 1051 C-92.66 1051 -93.32 1051 -94 1051 C-95.65625 1049.28515625 -95.65625 1049.28515625 -97.5 1047.0625 C-99.88926999 1044.07954821 -99.88926999 1044.07954821 -103 1042 C-103 1041.34 -103 1040.68 -103 1040 C-103.66 1040 -104.32 1040 -105 1040 C-105.26554687 1039.39414063 -105.53109375 1038.78828125 -105.8046875 1038.1640625 C-107.05278784 1035.90442987 -108.09105149 1034.91701678 -110.125 1033.375 C-113.94579199 1030.22521487 -116.84741969 1026.63970745 -119.87109375 1022.734375 C-122.88893931 1018.85824309 -126.05802234 1015.11093392 -129.21484375 1011.34765625 C-131 1009 -131 1009 -132 1006 C-132.66 1006 -133.32 1006 -134 1006 C-135.12109375 1004.55859375 -135.12109375 1004.55859375 -136.4375 1002.4375 C-139.76302433 997.26446216 -143.37620631 992.34075141 -147.04077148 987.40600586 C-155 976.65361875 -155 976.65361875 -155 974 C-155.66 974 -156.32 974 -157 974 C-157.36351562 973.31035156 -157.72703125 972.62070312 -158.1015625 971.91015625 C-161.06453417 966.37167844 -164.15584332 961.09087618 -167.80078125 955.97265625 C-169.01969942 953.96759542 -169.56400333 952.29282956 -170 950 C-170.66 950 -171.32 950 -172 950 C-172.72703125 948.5459375 -172.72703125 948.5459375 -173.46875 947.0625 C-173.78827637 946.42368896 -174.10780273 945.78487793 -174.43701172 945.12670898 C-175.15816729 943.68390096 -175.87851859 942.2406907 -176.59814453 940.79711914 C-178.36779627 937.24977527 -180.14487038 933.70743042 -181.9609375 930.18359375 C-211.61209336 872.38999592 -227.28808435 808.53543132 -227.1875 743.625 C-227.18689575 742.89055664 -227.1862915 742.15611328 -227.18566895 741.39941406 C-227.15502974 727.52358923 -226.43316277 713.80645535 -225 700 C-224.86440821 698.66129682 -224.72882936 697.32259234 -224.59326172 695.98388672 C-220.50831732 656.13157777 -211.23418147 617.41031725 -200 579 C-199.62757271 577.70790102 -199.25535377 576.41574197 -198.88330078 575.12353516 C-195.9432782 564.96043014 -192.74198569 554.90407636 -189.375 544.875 C-189.11910095 544.11007233 -188.8632019 543.34514465 -188.59954834 542.55703735 C-184.86557261 531.40190366 -181.0467782 520.2779933 -177.125 509.1875 C-176.69751465 507.97497559 -176.2700293 506.76245117 -175.82958984 505.51318359 C-173.22930036 498.21845912 -170.44681016 491.01117039 -167.54443359 483.83276367 C-165.97598828 479.95258253 -164.44553871 476.05810237 -162.921875 472.16015625 C-156.89780877 456.77098379 -150.77888231 441.4352617 -144.35253906 426.20849609 C-142.8207742 422.57484018 -141.29644711 418.93811324 -139.7734375 415.30078125 C-137.26712137 409.31549999 -134.75652346 403.33203193 -132.24368286 397.3494873 C-130.70293752 393.67964088 -129.16874661 390.00715035 -127.640625 386.33203125 C-124.53030605 378.86609509 -121.33194143 371.48296764 -117.84960938 364.18041992 C-114.39992308 356.86328187 -111.3318741 349.38208423 -108.20361328 341.92358398 C-104.91984851 334.11545827 -101.52614772 326.36751364 -97.99267578 318.66918945 C-95.83963459 313.95857445 -93.85692336 309.20494277 -91.95336914 304.38818359 C-90.60027788 300.99869866 -89.15647055 297.65307671 -87.6875 294.3125 C-87.2397522 293.28914551 -87.2397522 293.28914551 -86.78295898 292.24511719 C-84.78594088 287.70772455 -82.6953246 283.2250361 -80.5625 278.75 C-77.38185969 272.056333 -74.6141496 265.22094608 -71.92797852 258.31542969 C-70.26597598 254.06438015 -68.51565752 249.88438352 -66.60546875 245.73828125 C-63.68322291 239.38445839 -61.0563642 232.92109583 -58.4375 226.4375 C-57.73463867 224.7059668 -57.73463867 224.7059668 -57.01757812 222.93945312 C-55.6745269 219.6278457 -54.33615371 216.31439562 -53 213 C-52.65138916 212.13689209 -52.30277832 211.27378418 -51.94360352 210.38452148 C-49.24641921 203.67904975 -46.65011026 196.93589245 -44.0625 190.1875 C-43.22005208 187.99348958 -42.37760417 185.79947917 -41.53515625 183.60546875 C-41.11661377 182.51314941 -40.69807129 181.42083008 -40.2668457 180.29541016 C-39.42907291 178.11613532 -38.58653702 175.93868497 -37.73901367 173.76318359 C-34.71475573 165.98214865 -31.89612078 158.14618081 -29.1875 150.25 C-28.86742981 149.3172374 -28.86742981 149.3172374 -28.54089355 148.3656311 C-21.48107002 127.7664155 -14.89745351 107.23211307 -10 86 C-9.73944824 84.8872168 -9.47889648 83.77443359 -9.21044922 82.62792969 C-2.80375242 55.04235787 -0.47359286 28.2140985 0 0 Z M100 392 C101 394 101 394 101 394 Z " fill="#066526" transform="translate(295,0)"/>
<path d="M0 0 C0.66 0.33 1.32 0.66 2 1 C-3.96324997 7.96607879 -10.35578487 14.49439352 -16.8125 21 C-17.64885986 21.84925049 -18.48521973 22.69850098 -19.34692383 23.57348633 C-20.5461145 24.7746106 -20.5461145 24.7746106 -21.76953125 26 C-22.48729736 26.721875 -23.20506348 27.44375 -23.94458008 28.1875 C-25.89505806 29.90746063 -27.62500486 30.97369741 -30 32 C-28.71977125 29.19030533 -27.39285871 27.1460762 -25.20263672 24.97558594 C-24.64220673 24.41530701 -24.08177673 23.85502808 -23.50436401 23.277771 C-22.90222076 22.68595032 -22.30007751 22.09412964 -21.6796875 21.484375 C-21.06102814 20.86854553 -20.44236877 20.25271606 -19.80496216 19.6182251 C-17.83296186 17.65739664 -15.85411263 15.70364699 -13.875 13.75 C-12.53469836 12.41973201 -11.19484917 11.089008 -9.85546875 9.7578125 C-6.57553411 6.4998985 -3.28944058 3.24831467 0 0 Z " fill="#B3DF50" transform="translate(457,559)"/>
<path d="M0 0 C0.66 0.33 1.32 0.66 2 1 C-3.01798007 6.88801691 -8.28300731 12.46573681 -13.75 17.9375 C-14.50410156 18.70384766 -15.25820313 19.47019531 -16.03515625 20.25976562 C-17.12376953 21.3512793 -17.12376953 21.3512793 -18.234375 22.46484375 C-18.88631836 23.120896 -19.53826172 23.77694824 -20.20996094 24.45288086 C-22 26 -22 26 -25 27 C-23.41568547 23.09148801 -20.73364905 20.47632644 -17.7734375 17.578125 C-17.26575836 17.07327576 -16.75807922 16.56842651 -16.23501587 16.04827881 C-14.61966158 14.44407904 -12.99747791 12.84699144 -11.375 11.25 C-10.27558302 10.16061893 -9.17661941 9.0707801 -8.078125 7.98046875 C-5.3906398 5.31498115 -2.69700979 2.65584857 0 0 Z " fill="#BAE35C" transform="translate(651,701)"/>
</svg>
